<svg width="42" height="40" viewBox="0 0 42 40" fill="none" xmlns="http://www.w3.org/2000/svg">
<g clip-path="url(#clip0_35_3862)">
<path d="M12.25 18.375V21.625H29.75V18.375H12.25ZM21 3.75C11.34 3.75 3.5 11.03 3.5 20C3.5 28.97 11.34 36.25 21 36.25C30.66 36.25 38.5 28.97 38.5 20C38.5 11.03 30.66 3.75 21 3.75ZM21 33C13.2825 33 7 27.1662 7 20C7 12.8338 13.2825 7 21 7C28.7175 7 35 12.8338 35 20C35 27.1662 28.7175 33 21 33Z" fill="#DC2626"/>
</g>
<defs>
<clipPath id="clip0_35_3862">
<rect width="42" height="39" fill="white" transform="translate(0 0.5)"/>
</clipPath>
</defs>
</svg>
